# xmcd
#
# Track frame offsets: 
#        150
#        12080
#        26212
#        40192
#        44435
#        57170
#        66915
#        77677
#        91057
#        102602
#        114337
#        127010
#        142925
#        155160
#        166607
#        178492
#        193609
#        204390
#        217017
#        219025
#        231372
#        242995
#        253175
#        264245
#        275327
#        288617
#        301640
#        319820
#
# Disc length: 4441 seconds
#
# Revision: 9
# Processed by: cddbd v1.5.2PL0 Copyright (c) Steve Scherf et al.
# Submitted via: ExactAudioCopyFreeDBPlugin 1.0
#
DISCID=9811571c
DTITLE=Howlin' Wolf - Howlin' Wolf:  The Chess Box, 1951-1973 [box set
DTITLE=]
DYEAR=1991
DGENRE=Blues
TTITLE0=Don't Mess with My Baby
TTITLE1=Smokestack Lightnin'
TTITLE2=You Can't Be Beat
TTITLE3=Howlin' Wolf Talks #3
TTITLE4=I Asked for Water
TTITLE5=The Natchez Burnin'
TTITLE6=Who's Been Talking
TTITLE7=Tell Me
TTITLE8=Sittin' on Top of The World
TTITLE9=I Didn't Know
TTITLE10=Moaning for My Baby
TTITLE11=Change My Way
TTITLE12=I Better Go Now
TTITLE13=Howlin' for My Darling
TTITLE14=I've Been Abused
TTITLE15=Mr. Airplane Man (alternate take)
TTITLE16=Wang Dang Doodle
TTITLE17=Back Door Man
TTITLE18=Howlin' Wolf Talks #4
TTITLE19=Spoonful
TTITLE20=Down in the Bottom
TTITLE21=Shake for Me
TTITLE22=The Red Rooster
TTITLE23=You'll Be Mine
TTITLE24=Just Like I Treat You
TTITLE25=I Ain't Superstitious
TTITLE26=Goin' Down Slow
TTITLE27=Tail Dragger
EXTD=
EXTT0=
EXTT1=
EXTT2=
EXTT3=
EXTT4=
EXTT5=
EXTT6=
EXTT7=
EXTT8=
EXTT9=
EXTT10=
EXTT11=
EXTT12=
EXTT13=
EXTT14=
EXTT15=
EXTT16=
EXTT17=
EXTT18=
EXTT19=
EXTT20=
EXTT21=
EXTT22=
EXTT23=
EXTT24=
EXTT25=
EXTT26=
EXTT27=
PLAYORDER=
